<svg width="740" height="559" xmlns="http://www.w3.org/2000/svg" xmlns:xlink="http://www.w3.org/1999/xlink" overflow="hidden"><defs><clipPath id="clip0"><rect x="272" y="97" width="740" height="559"/></clipPath><clipPath id="clip1"><rect x="392" y="126" width="501" height="501"/></clipPath><clipPath id="clip2"><rect x="392" y="126" width="501" height="501"/></clipPath><clipPath id="clip3"><rect x="392" y="126" width="501" height="501"/></clipPath></defs><g clip-path="url(#clip0)" transform="translate(-272 -97)"><rect x="273" y="98" width="738" height="558" fill="#DAE3F3"/><g clip-path="url(#clip1)"><g clip-path="url(#clip2)"><g clip-path="url(#clip3)"><path d="M853.99 233.419C806.802 225.953 759.067 222.496 711.296 223.082 669.959 220.825 629.778 237.173 601.759 267.649 572.227 301.342 559.743 352.889 567.126 409.268 585.919 550.083 554.776 604.18 553.703 605.254 549.707 611.834 551.669 620.4 558.132 624.584 560.37 626.03 562.986 626.777 565.65 626.732 570.424 626.723 574.87 624.298 577.462 620.288 578.939 617.738 615.049 559.076 594.51 405.51 588.067 357.185 598.269 313.692 622.432 286.039 645.235 261.79 677.676 248.99 710.893 251.138 756.954 250.778 802.968 254.145 848.486 261.206 855.719 262.831 862.901 258.285 864.526 251.052 864.609 250.681 864.677 250.306 864.729 249.93 866.541 242.741 862.183 235.444 854.994 233.632 854.662 233.548 854.327 233.477 853.99 233.419ZM736.264 218.518 737.07 218.518C743.139 218.171 747.777 212.969 747.43 206.9 747.423 206.79 747.415 206.681 747.406 206.571L745.661 181.469 771.434 207.243C772.747 208.561 774.54 209.288 776.401 209.256 778.25 209.231 780.023 208.512 781.368 207.243 784.062 204.479 784.062 200.072 781.368 197.309L744.184 160.26 742.439 136.366C741.994 130.212 736.645 125.585 730.492 126.03 724.339 126.474 719.711 131.823 720.156 137.977L725.123 208.182C725.608 213.989 730.438 218.469 736.264 218.518Z" fill="#8A8A8A"/><path d="M739.889 266.307C733.746 267.141 729.429 272.777 730.224 278.925 731.369 290.117 731.728 301.376 731.297 312.618L691.026 272.347C688.283 269.604 683.836 269.604 681.093 272.347 678.35 275.09 678.35 279.538 681.093 282.281L729.687 330.874C727.757 348.751 723.235 366.251 716.263 382.824L646.057 312.618C643.681 309.583 639.293 309.049 636.258 311.425 633.223 313.802 632.688 318.189 635.065 321.224 635.413 321.669 635.814 322.069 636.258 322.417L709.954 396.248 706.866 401.617C700.829 410.962 693.458 419.374 684.986 426.585L636.124 377.723C633.522 374.98 629.188 374.866 626.445 377.468 626.358 377.551 626.273 377.636 626.19 377.723 623.512 380.44 623.512 384.805 626.19 387.522L673.978 434.773C656.354 446.212 636.41 453.594 615.586 456.385 609.432 456.645 604.654 461.844 604.914 467.997 605.173 474.15 610.372 478.928 616.525 478.669L617.331 478.669C661.367 473.858 701.095 450.022 726.062 413.43 762.977 355.574 752.909 279.193 752.909 275.703 752.045 269.611 746.405 265.373 740.313 266.238 740.171 266.258 740.029 266.281 739.889 266.307ZM559.341 535.317 517.593 488.468 551.018 488.468C557.193 488.394 562.16 483.368 562.159 477.192 562.159 471.039 557.171 466.05 551.018 466.05L430.876 466.05C424.723 465.976 419.675 470.904 419.601 477.057 419.601 477.102 419.6 477.147 419.6 477.192 419.6 483.42 424.649 488.468 430.876 488.468L489.94 488.468C490.251 490.507 491.136 492.416 492.491 493.972L542.695 549.814C544.815 552.185 547.838 553.549 551.018 553.573 553.81 553.59 556.501 552.532 558.535 550.62 562.761 546.513 563.112 539.844 559.341 535.317Z" fill="#8A8A8A"/></g></g></g><text fill="#333F50" font-family="Arial,Arial_MSFontService,sans-serif" font-weight="900" font-size="153" transform="translate(452.5 392)">Bio0</text><path d="M725.587 404.667 776.587 404.667 827.587 404.667 827.587 411.667 776.587 411.667 725.587 411.667Z" fill="#333F50" fill-rule="evenodd"/><text fill="#333F50" font-family="Microsoft YaHei,Microsoft YaHei_MSFontService,sans-serif" font-weight="700" font-size="48" transform="translate(464.833 478)">生信<tspan font-size="48" x="110.333" y="0">从这里开始</tspan></text></g></svg>