<svg width="506" height="491" xmlns="http://www.w3.org/2000/svg" xmlns:xlink="http://www.w3.org/1999/xlink" overflow="hidden"><defs><clipPath id="clip0"><rect x="297" y="121" width="506" height="491"/></clipPath><clipPath id="clip1"><rect x="328" y="145" width="444" height="443"/></clipPath><clipPath id="clip2"><rect x="328" y="145" width="444" height="443"/></clipPath><clipPath id="clip3"><rect x="328" y="145" width="444" height="443"/></clipPath></defs><g clip-path="url(#clip0)" transform="translate(-297 -121)"><path d="M298 203.504C298 158.491 334.491 122 379.504 122L720.496 122C765.509 122 802 158.491 802 203.504L802 529.511C802 574.524 765.509 611.015 720.496 611.015L379.504 611.015C334.491 611.015 298 574.524 298 529.511Z" fill="#DAE3F3" fill-rule="evenodd"/><g clip-path="url(#clip1)"><g clip-path="url(#clip2)"><g clip-path="url(#clip3)"><path d="M408.506 94.983C366.781 88.382 324.572 85.3245 282.332 85.8434 245.78 83.847 210.251 98.3024 185.476 125.251 159.363 155.043 148.324 200.623 154.852 250.475 171.47 374.987 143.932 422.822 142.983 423.771 139.449 429.59 141.185 437.164 146.9 440.863 148.878 442.142 151.191 442.803 153.546 442.763 157.769 442.755 161.7 440.611 163.992 437.065 165.297 434.81 197.227 382.94 179.066 247.151 173.369 204.421 182.39 165.963 203.755 141.512 223.918 120.069 252.604 108.752 281.976 110.651 322.704 110.332 363.391 113.31 403.639 119.553 410.035 120.99 416.385 116.971 417.822 110.575 417.896 110.247 417.956 109.916 418.001 109.583 419.604 103.226 415.751 96.774 409.394 95.1712 409.101 95.0972 408.804 95.0344 408.506 94.983ZM304.409 81.8077 305.121 81.8077C310.488 81.5004 314.589 76.9006 314.282 71.534 314.276 71.4372 314.269 71.3404 314.261 71.2438L312.718 49.0476 335.508 71.8373C336.669 73.0029 338.254 73.6457 339.899 73.6177 341.535 73.5953 343.102 72.9599 344.291 71.8373 346.673 69.394 346.673 65.497 344.291 63.0537L311.412 30.2936 309.869 9.16571C309.476 3.72473 304.746-0.367211 299.305 0.0261129 293.864 0.419437 289.772 5.14908 290.166 10.5901L294.557 72.6681C294.987 77.8025 299.257 81.7643 304.409 81.8077Z" fill="#2C2C2C" transform="matrix(1.00226 0 0 1 328 145)"/><path d="M307.614 124.064C302.183 124.801 298.365 129.785 299.068 135.221 300.081 145.117 300.398 155.073 300.017 165.014L264.409 129.405C261.983 126.979 258.051 126.979 255.625 129.405 253.2 131.83 253.2 135.763 255.625 138.188L298.593 181.156C296.887 196.963 292.888 212.437 286.724 227.092L224.645 165.014C222.544 162.33 218.665 161.857 215.981 163.959 213.297 166.06 212.824 169.939 214.926 172.624 215.233 173.017 215.588 173.371 215.981 173.679L281.145 238.961 278.415 243.709C273.076 251.972 266.558 259.41 259.067 265.787L215.862 222.581C213.561 220.156 209.729 220.055 207.304 222.356 207.227 222.429 207.152 222.504 207.078 222.581 204.71 224.984 204.71 228.843 207.078 231.246L249.334 273.027C233.75 283.142 216.115 289.669 197.701 292.137 192.26 292.367 188.036 296.963 188.265 302.404 188.495 307.845 193.091 312.07 198.532 311.841L199.244 311.841C238.183 307.587 273.311 286.51 295.388 254.154 328.03 202.996 319.128 135.458 319.128 132.372 318.363 126.985 313.376 123.238 307.989 124.003 307.864 124.021 307.739 124.041 307.614 124.064ZM147.968 361.931 111.053 320.506 140.609 320.506C146.069 320.441 150.461 315.996 150.46 310.535 150.46 305.094 146.05 300.683 140.609 300.683L34.3756 300.683C28.935 300.618 24.4714 304.975 24.4058 310.416 24.4053 310.456 24.4051 310.495 24.4051 310.535 24.4051 316.042 28.869 320.506 34.3756 320.506L86.6019 320.506C86.8767 322.309 87.6589 323.997 88.8571 325.372L133.249 374.75C135.124 376.846 137.797 378.053 140.609 378.073 143.077 378.089 145.457 377.153 147.256 375.462 150.992 371.83 151.303 365.934 147.968 361.931Z" fill="#2C2C2C" transform="matrix(1.00226 0 0 1 328 145)"/></g></g></g><text fill="#203864" font-family="Arial,Arial_MSFontService,sans-serif" font-weight="900" font-size="72" transform="translate(521.867 518)">B</text></g></svg>