<svg width="506" height="491" xmlns="http://www.w3.org/2000/svg" xmlns:xlink="http://www.w3.org/1999/xlink" overflow="hidden"><defs><clipPath id="clip0"><rect x="297" y="121" width="506" height="491"/></clipPath><clipPath id="clip1"><rect x="328" y="145" width="444" height="443"/></clipPath><clipPath id="clip2"><rect x="328" y="145" width="444" height="443"/></clipPath><clipPath id="clip3"><rect x="328" y="145" width="444" height="443"/></clipPath></defs><g clip-path="url(#clip0)" transform="translate(-297 -121)"><path d="M298 203.504C298 158.491 334.491 122 379.504 122L720.496 122C765.509 122 802 158.491 802 203.504L802 529.511C802 574.524 765.509 611.015 720.496 611.015L379.504 611.015C334.491 611.015 298 574.524 298 529.511Z" fill="#B4C7E7" fill-rule="evenodd"/><g clip-path="url(#clip1)"><g clip-path="url(#clip2)"><g clip-path="url(#clip3)"><path d="M408.506 94.9828C366.781 88.382 324.572 85.3247 282.332 85.8434 245.78 83.8468 210.251 98.3023 185.476 125.25 159.363 155.043 148.324 200.622 154.852 250.475 171.47 374.987 143.932 422.822 142.983 423.771 139.449 429.59 141.185 437.164 146.899 440.863 148.878 442.143 151.191 442.801 153.547 442.762 157.769 442.753 161.7 440.612 163.992 437.065 165.297 434.811 197.227 382.94 179.066 247.152 173.369 204.421 182.39 165.963 203.755 141.512 223.918 120.069 252.603 108.752 281.976 110.651 322.704 110.333 363.391 113.309 403.639 119.553 410.035 120.99 416.385 116.971 417.823 110.575 417.896 110.247 417.956 109.915 418.002 109.583 419.604 103.226 415.751 96.7739 409.394 95.171 409.101 95.097 408.804 95.0343 408.506 94.9828ZM304.409 81.8079 305.121 81.8079C310.488 81.5003 314.589 76.9007 314.282 71.5341 314.276 71.4372 314.27 71.3403 314.261 71.2438L312.718 49.0475 335.508 71.8374C336.669 73.0029 338.254 73.6457 339.9 73.6176 341.535 73.5951 343.102 72.96 344.291 71.8374 346.673 69.394 346.673 65.4969 344.291 63.054L311.412 30.2936 309.869 9.16573C309.476 3.72473 304.746-0.367212 299.305 0.0261129 293.864 0.419437 289.772 5.1491 290.166 10.5901L294.557 72.668C294.987 77.8027 299.257 81.7642 304.409 81.8079Z" fill="#2C2C2C" transform="matrix(1.00226 0 0 1 328 145)"/><path d="M307.614 124.063C302.183 124.801 298.366 129.785 299.068 135.221 300.081 145.118 300.398 155.073 300.017 165.014L264.409 129.405C261.983 126.979 258.051 126.979 255.625 129.405 253.2 131.831 253.2 135.763 255.625 138.188L298.593 181.156C296.887 196.963 292.888 212.437 286.724 227.092L224.646 165.014C222.544 162.33 218.665 161.857 215.981 163.959 213.297 166.06 212.824 169.939 214.926 172.623 215.234 173.017 215.587 173.371 215.981 173.678L281.145 238.961 278.415 243.709C273.077 251.972 266.558 259.41 259.067 265.787L215.862 222.582C213.561 220.156 209.729 220.055 207.304 222.356 207.227 222.429 207.151 222.504 207.078 222.582 204.711 224.984 204.711 228.843 207.078 231.246L249.334 273.027C233.75 283.141 216.115 289.669 197.701 292.137 192.26 292.367 188.036 296.964 188.265 302.405 188.494 307.846 193.091 312.07 198.532 311.841L199.244 311.841C238.183 307.587 273.312 286.51 295.388 254.154 328.03 202.997 319.127 135.459 319.127 132.372 318.363 126.985 313.376 123.238 307.989 124.003 307.863 124.021 307.739 124.041 307.614 124.063ZM147.968 361.931 111.053 320.506 140.609 320.506C146.069 320.44 150.461 315.996 150.46 310.535 150.46 305.094 146.049 300.683 140.609 300.683L34.3756 300.683C28.935 300.618 24.4714 304.975 24.4058 310.416 24.4053 310.456 24.4051 310.495 24.4051 310.535 24.4051 316.042 28.869 320.506 34.3756 320.506L86.6017 320.506C86.8769 322.309 87.6591 323.997 88.857 325.372L133.25 374.75C135.124 376.846 137.797 378.053 140.609 378.073 143.077 378.088 145.458 377.154 147.256 375.462 150.992 371.831 151.303 365.934 147.968 361.931Z" fill="#2C2C2C" transform="matrix(1.00226 0 0 1 328 145)"/></g></g></g><text fill="#203864" font-family="Arial,Arial_MSFontService,sans-serif" font-weight="900" font-size="72" transform="translate(521.867 518)">B</text></g></svg>