<svg width="1025" height="559" xmlns="http://www.w3.org/2000/svg" xmlns:xlink="http://www.w3.org/1999/xlink" overflow="hidden"><defs><clipPath id="clip0"><rect x="130" y="92" width="1025" height="559"/></clipPath><clipPath id="clip1"><path d="M212.788 359.088 382.122 186.577 554.633 355.912 385.299 528.423Z" fill-rule="evenodd" clip-rule="evenodd"/></clipPath><clipPath id="clip2"><path d="M212.788 359.088 382.122 186.577 554.633 355.912 385.299 528.423Z" fill-rule="evenodd" clip-rule="evenodd"/></clipPath><clipPath id="clip3"><path d="M212.788 359.088 382.122 186.577 554.633 355.912 385.299 528.423Z" fill-rule="evenodd" clip-rule="evenodd"/></clipPath><clipPath id="clip4"><path d="M1077.9 360.496 902.206 535.202 727.5 359.504 903.199 184.798Z" fill-rule="evenodd" clip-rule="evenodd"/></clipPath><clipPath id="clip5"><path d="M1077.9 360.496 902.206 535.202 727.5 359.504 903.199 184.798Z" fill-rule="evenodd" clip-rule="evenodd"/></clipPath><clipPath id="clip6"><path d="M1077.9 360.496 902.206 535.202 727.5 359.504 903.199 184.798Z" fill-rule="evenodd" clip-rule="evenodd"/></clipPath></defs><g clip-path="url(#clip0)" transform="translate(-130 -92)"><rect x="130" y="93" width="1024" height="558" fill="#B4C7E7"/><g clip-path="url(#clip1)"><g clip-path="url(#clip2)"><g clip-path="url(#clip3)"><path d="M419.007 476.828C415.889 480.004 410.788 480.052 407.612 476.934L320.638 391.561C311.585 382.218 306.946 371.071 306.713 358.287 306.704 345.355 311.138 334.126 319.874 324.76L363.196 280.626C366.313 277.451 371.415 277.403 374.591 280.521 377.767 283.638 377.814 288.74 374.697 291.915L331.516 335.906C325.714 342.128 322.825 349.448 322.831 358.137 322.985 366.682 326.009 373.948 332.07 380.202L418.901 465.433C422.077 468.551 422.124 473.652 419.007 476.828ZM416.889 248.931 402.919 263.164C399.802 266.339 394.7 266.387 391.524 263.27 388.348 260.152 388.301 255.05 391.418 251.875L405.388 237.643C408.506 234.467 413.607 234.419 416.783 237.537 419.959 240.654 420.006 245.756 416.889 248.931Z"/><path d="M429.713 402.656 401.773 431.12C400.214 432.708 397.664 432.732 396.076 431.173 394.488 429.615 394.464 427.064 396.023 425.476L417.15 403.952 341.414 404.656C339.19 404.677 337.369 402.89 337.349 400.665 337.328 398.441 339.115 396.62 341.339 396.6L425.131 395.821 438.78 381.917C444.35 375.8 447.533 368.876 448.388 360.93L314.809 362.169C312.584 362.189 310.764 360.403 310.744 358.178 310.723 355.953 312.51 354.133 314.734 354.113L448.222 352.869C447.307 344.818 443.975 337.912 438.101 331.853L424.412 318.416 340.62 319.195C338.395 319.215 336.575 317.429 336.555 315.204 336.534 312.979 338.321 311.159 340.545 311.138L416.281 310.435 351.342 246.692C349.754 245.133 349.731 242.582 351.289 240.994 352.848 239.406 355.399 239.383 356.987 240.941L443.817 326.173C451.843 334.451 456.089 344.361 456.507 355.695 456.615 356.062 456.672 356.441 456.677 356.822L456.678 356.908C456.578 368.512 452.525 378.789 444.634 387.455L429.713 402.656ZM373.268 460.16 359.157 474.535C357.599 476.123 355.048 476.147 353.46 474.588 351.872 473.03 351.848 470.479 353.407 468.891L367.518 454.515C369.077 452.927 371.628 452.904 373.216 454.462 374.803 456.021 374.827 458.572 373.268 460.16Z"/></g></g></g><text font-family="Arial,Arial_MSFontService,sans-serif" font-weight="900" font-size="153" transform="translate(452.5 392)">Bio0</text><path d="M725.587 404.667 776.587 404.667 827.587 404.667 827.587 411.667 776.587 411.667 725.587 411.667Z" fill-rule="evenodd"/><text font-family="Microsoft YaHei,Microsoft YaHei_MSFontService,sans-serif" font-weight="700" font-size="48" transform="translate(464.833 478)">生信<tspan font-size="48" x="110.333" y="0">从这里开始</tspan></text><g clip-path="url(#clip4)"><g clip-path="url(#clip5)"><g clip-path="url(#clip6)"><path d="M868.009 237.259C871.244 234.043 876.473 234.058 879.69 237.292L967.771 325.874C976.932 335.562 981.549 347.045 981.628 360.15 981.477 373.404 976.793 384.858 967.723 394.349L922.773 439.044C919.539 442.261 914.309 442.246 911.093 439.011 907.877 435.777 907.892 430.547 911.126 427.331L955.929 382.781C961.954 376.476 965.006 369.01 965.107 360.104 965.056 351.343 962.046 343.859 955.912 337.374L867.976 248.939C864.76 245.705 864.775 240.475 868.009 237.259ZM867.348 470.862 881.843 456.449C885.078 453.233 890.307 453.247 893.523 456.482 896.739 459.716 896.725 464.946 893.49 468.162L878.995 482.575C875.76 485.792 870.531 485.777 867.315 482.542 864.099 479.308 864.113 474.078 867.348 470.862Z"/><path d="M856.114 313.147 885.104 284.321C886.722 282.712 889.336 282.72 890.945 284.337 892.553 285.954 892.545 288.569 890.928 290.177L869.007 311.975 946.639 312.194C948.919 312.201 950.763 314.055 950.756 316.335 950.75 318.615 948.896 320.459 946.615 320.452L860.725 320.209 846.564 334.29C840.78 340.491 837.431 347.548 836.456 355.68L973.379 356.071C975.659 356.078 977.503 357.931 977.496 360.212 977.49 362.492 975.636 364.335 973.356 364.329L836.526 363.944C837.364 372.208 840.693 379.327 846.638 385.611L860.501 399.552 946.391 399.796C948.671 399.802 950.514 401.656 950.508 403.936 950.502 406.217 948.648 408.06 946.367 408.053L868.735 407.834 934.5 473.972C936.109 475.59 936.101 478.204 934.484 479.812 932.867 481.421 930.252 481.413 928.644 479.796L840.708 391.361C832.586 382.776 828.357 372.568 828.069 360.945 827.963 360.568 827.91 360.179 827.909 359.788L827.909 359.701C828.156 347.808 832.437 337.325 840.632 328.542L856.114 313.147ZM914.68 254.912 929.322 240.353C930.939 238.745 933.554 238.752 935.162 240.369 936.77 241.987 936.763 244.601 935.145 246.209L920.504 260.768C918.887 262.376 916.272 262.369 914.664 260.752 913.056 259.135 913.063 256.52 914.68 254.912Z"/></g></g></g></g></svg>