<svg width="506" height="491" xmlns="http://www.w3.org/2000/svg" xmlns:xlink="http://www.w3.org/1999/xlink" overflow="hidden"><defs><clipPath id="clip0"><rect x="297" y="121" width="506" height="491"/></clipPath><clipPath id="clip1"><rect x="366" y="177" width="366" height="366"/></clipPath><clipPath id="clip2"><rect x="366" y="177" width="366" height="366"/></clipPath><clipPath id="clip3"><rect x="366" y="177" width="366" height="366"/></clipPath></defs><g clip-path="url(#clip0)" transform="translate(-297 -121)"><path d="M298 203.504C298 158.491 334.491 122 379.504 122L720.496 122C765.509 122 802 158.491 802 203.504L802 529.511C802 574.524 765.509 611.015 720.496 611.015L379.504 611.015C334.491 611.015 298 574.524 298 529.511Z" fill="#B4C7E7" fill-rule="evenodd"/><g clip-path="url(#clip1)"><g clip-path="url(#clip2)"><g clip-path="url(#clip3)"><path d="M388.947 530.203C388.16 536.995 393.45 542.928 400.312 542.928L423.402 542.999C429.192 542.999 434.053 538.782 434.839 533.063 435.34 529.56 436.126 525.128 437.27 520.124L660.514 520.124C661.658 525.057 662.587 529.56 663.016 533.063 663.803 538.782 668.664 543.071 674.454 542.999L697.543 542.928C704.406 542.928 709.767 536.995 708.909 530.203 705.621 503.111 690.609 437.989 623.914 381.731 611.333 390.595 597.394 399.03 582.096 407.036 586.528 410.325 590.245 413.756 594.249 417.187L503.035 417.187C518.261 404.249 536.633 391.739 559.293 380.444 682.317 319.326 704.906 224.037 709.052 189.797 709.838 183.006 704.548 177.072 697.686 177.072L674.525 177.001C668.735 177.001 663.874 181.218 663.088 186.937 662.587 190.44 661.801 194.872 660.657 199.876L437.341 199.876C436.197 194.872 435.411 190.511 434.911 186.937 434.124 181.218 429.263 176.929 423.473 177.001L400.384 177.072C393.521 177.072 388.16 183.006 388.947 189.797 392.664 220.463 411.321 299.81 503.249 360 411.392 420.19 392.664 499.537 388.947 530.203ZM548.999 333.98C531.057 324.186 515.831 313.678 503.035 302.813L594.892 302.813C582.168 313.678 566.942 324.258 548.999 333.98ZM642.715 245.626C638.569 253.06 633.565 260.709 627.703 268.5L470.367 268.5C464.434 260.709 459.43 253.06 455.355 245.626L642.715 245.626ZM455.284 474.374C459.43 466.94 464.434 459.291 470.295 451.5L627.131 451.5C633.064 459.291 638.14 466.94 642.286 474.374L455.284 474.374Z" fill="#2C2C2C"/></g></g></g></g></svg>